<?xml version="1.0" encoding="UTF-8"?>
<svg width="75px" height="75px" viewBox="0 0 75 75" version="1.1" xmlns="http://www.w3.org/2000/svg" xmlns:xlink="http://www.w3.org/1999/xlink">
    <!-- Generator: Sketch 64 (93537) - https://sketch.com -->
    <title>button/startz</title>
    <desc>Created with Sketch.</desc>
    <g id="Start" stroke="none" stroke-width="1" fill="none" fill-rule="evenodd">
        <g id="1_1-menu_Home" transform="translate(-922.000000, -438.000000)">
            <g id="Home" transform="translate(865.000000, 390.000000)">
                <g id="button/startz" transform="translate(48.500000, 39.000000)">
                    <g id="Group-9" transform="translate(10.145455, 10.990909)">
                        <path d="M0.811636364,35.8984469 C0.811636364,16.5202101 16.5204637,0.811382727 35.8972995,0.811382727 C55.2755363,0.811382727 70.9843636,16.5202101 70.9843636,35.8984469 C70.9843636,55.2766837 55.2755363,70.98411 35.8972995,70.98411 C16.5204637,70.98411 0.811636364,55.2766837 0.811636364,35.8984469 Z" id="Stroke-1" stroke="#FFFFFF" stroke-width="4"></path>
                        <g id="innen" transform="translate(15.763627, 11.765135)">
                            <path d="M13.4590548,4.95404603 L11.9466902,5.51963574 C4.91085329,8.6718392 -9.02098598e-14,15.7225275 -9.02098598e-14,23.9316228 C-9.02098598e-14,35.076339 9.03582155,44.1121605 20.1817754,44.1121605 C31.3277292,44.1121605 40.3623131,35.076339 40.3623131,23.9316228 C40.3623131,15.3660946 35.0158196,8.06417061 27.4861746,5.13473771" id="Stroke-3" stroke="#FFFFFF" stroke-width="4" stroke-linecap="round"></path>
                            <path d="M20.258755,10.5444733 L20.1040532,10.5444733 C19.6176708,10.5444733 19.2228719,10.150912 19.2228719,9.66329197 L19.2228719,0.881181337 C19.2228719,0.394798942 19.6176708,0 20.1040532,0 L20.258755,0 C20.746375,0 21.1399363,0.394798942 21.1399363,0.881181337 L21.1399363,9.66329197 C21.1399363,10.150912 20.746375,10.5444733 20.258755,10.5444733" id="Fill-5" fill="#FFFFFF"></path>
                        </g>
                        <path d="M35.985567,20.7431834 L35.810433,20.7431834 C35.2598114,20.7431834 34.8128692,20.2976422 34.8128692,19.7456196 L34.8128692,9.80360756 C34.8128692,9.25298598 35.2598114,8.80604379 35.810433,8.80604379 L35.985567,8.80604379 C36.5375897,8.80604379 36.9831308,9.25298598 36.9831308,9.80360756 L36.9831308,19.7456196 C36.9831308,20.2976422 36.5375897,20.7431834 35.985567,20.7431834 Z" id="Stroke-7" stroke="#FFFFFF" stroke-width="2" stroke-linecap="round"></path>
                    </g>
                </g>
            </g>
        </g>
    </g>
</svg>