<?xml version="1.0" encoding="UTF-8"?>
<svg width="21px" height="19px" viewBox="0 0 21 19" version="1.1" xmlns="http://www.w3.org/2000/svg" xmlns:xlink="http://www.w3.org/1999/xlink">
    <!-- Generator: Sketch 64 (93537) - https://sketch.com -->
    <title>logo/bitbucket</title>
    <desc>Created with Sketch.</desc>
    <g id="Start" stroke="none" stroke-width="1" fill="none" fill-rule="evenodd">
        <g id="1_3-menu_links" transform="translate(-660.000000, -547.000000)" fill="#000000" fill-rule="nonzero">
            <g id="Hierachie2" transform="translate(481.000000, 8.000000)">
                <g id="menu/Links" transform="translate(138.000000, 379.000000)">
                    <g id="Links/Hierachie2" transform="translate(0.500000, 0.000000)">
                        <g id="logo/bitbucket" transform="translate(40.500000, 160.261905)">
                            <path d="M0.675269464,5.31823956e-05 C0.478324311,-0.00243137244 0.290335833,0.0822462519 0.161731844,0.231426879 C0.033127855,0.380607507 -0.0229274275,0.579020644 0.00860279776,0.773442069 L2.8386028,17.9534421 C2.91138616,18.3874072 3.28525828,18.7064635 3.72526946,18.7101647 L17.3019361,18.7101647 C17.632198,18.7143594 17.9157839,18.4761473 17.9686028,18.1501087 L20.7986028,0.776775403 C20.830133,0.582353978 20.7740777,0.38394084 20.6454738,0.234760213 C20.5168698,0.0855795852 20.3288813,0.000901960893 20.1319361,0.0034420692 L0.675269464,5.31823956e-05 Z M12.5919361,12.4167754 L8.2586028,12.4167754 L7.08526946,6.2867754 L13.6419361,6.2867754 L12.5919361,12.4167754 Z" id="Shape" fill="#2684FF"></path>
                        </g>
                    </g>
                </g>
            </g>
        </g>
    </g>
</svg>