<?xml version="1.0" encoding="UTF-8"?>
<svg width="20px" height="19px" viewBox="0 0 20 19" version="1.1" xmlns="http://www.w3.org/2000/svg" xmlns:xlink="http://www.w3.org/1999/xlink">
    <!-- Generator: Sketch 64 (93537) - https://sketch.com -->
    <title>logo/confluence</title>
    <desc>Created with Sketch.</desc>
    <defs>
        <linearGradient x1="99.140087%" y1="65.7068123%" x2="33.8589812%" y2="46.9329228%" id="linearGradient-1">
            <stop stop-color="#0052CC" offset="18%"></stop>
            <stop stop-color="#2684FF" offset="100%"></stop>
        </linearGradient>
        <linearGradient x1="12.67148%" y1="37.6851287%" x2="66.1800713%" y2="53.0862751%" id="linearGradient-2">
            <stop stop-color="#0052CC" offset="0%"></stop>
            <stop stop-color="#2684FF" offset="100%"></stop>
        </linearGradient>
    </defs>
    <g id="Start" stroke="none" stroke-width="1" fill="none" fill-rule="evenodd">
        <g id="1_3-menu_links" transform="translate(-656.000000, -387.000000)" fill="#000000" fill-rule="nonzero">
            <g id="Hierachie2" transform="translate(481.000000, 8.000000)">
                <g id="menu/Links" transform="translate(138.000000, 379.000000)">
                    <g id="Links/Hierachie2" transform="translate(0.500000, 0.000000)">
                        <g id="logo/confluence" transform="translate(36.688525, 0.000000)">
                            <path d="M0.709873697,14.3593851 C0.507414681,14.689549 0.280037632,15.0726637 0.0869228776,15.3779096 C-0.0859298198,15.6700092 0.00686442698,16.0467261 0.295611402,16.2251228 L4.34479173,18.716926 C4.48692628,18.8046823 4.6583502,18.8316787 4.82057661,18.7918542 C4.98280301,18.7520297 5.12223872,18.6487212 5.20757862,18.5051228 C5.36954583,18.2341391 5.57823435,17.8821719 5.8056114,17.5052867 C7.40970976,14.8577457 9.02315239,15.1816801 11.9323327,16.5708605 L15.9472507,18.4802047 C16.0993099,18.5525806 16.2741937,18.5603089 16.4320444,18.5016283 C16.5898951,18.4429478 16.7172629,18.3228582 16.7851196,18.1687293 L18.7131524,13.8080736 C18.849371,13.4966307 18.7107662,13.133486 18.401677,12.992008 C17.5544639,12.5933195 15.8693819,11.7990572 14.3524966,11.06709 C8.89544747,8.41643423 4.25757862,8.58774571 0.709873697,14.3593851 Z" id="Path" fill="url(#linearGradient-1)"></path>
                            <path d="M18.8657753,4.46381128 C19.0682344,4.13364735 19.2956114,3.75053259 19.4887262,3.44528669 C19.6615789,3.15318717 19.5687846,2.77647023 19.2800376,2.59807357 L15.2308573,0.106270296 C15.087563,0.00975703794 14.9106233,-0.0229136018 14.7423117,0.0160638425 C14.574,0.0550412868 14.4294339,0.162165874 14.3431524,0.311844067 C14.1811852,0.582827673 13.9724966,0.934794886 13.7451196,1.31168013 C12.1410212,3.95922112 10.5275786,3.63528669 7.61839829,2.24610636 L3.61593927,0.346106362 C3.4638801,0.273730532 3.28899633,0.266002218 3.13114563,0.324682775 C2.97329493,0.383363333 2.84592708,0.503452847 2.77807042,0.657581772 L0.850037632,5.01823751 C0.713818977,5.3296804 0.852423804,5.69282504 1.16151304,5.83430308 C2.00872616,6.23299161 3.69380812,7.0272539 5.21069337,7.75922112 C10.6802016,10.4067621 15.3180704,10.2292211 18.8657753,4.46381128 Z" id="Path" fill="url(#linearGradient-2)"></path>
                        </g>
                    </g>
                </g>
            </g>
        </g>
    </g>
</svg>