<?xml version="1.0" encoding="UTF-8"?>
<svg width="21px" height="22px" viewBox="0 0 21 22" version="1.1" xmlns="http://www.w3.org/2000/svg" xmlns:xlink="http://www.w3.org/1999/xlink">
    <!-- Generator: Sketch 64 (93537) - https://sketch.com -->
    <title>logo/Jira</title>
    <desc>Created with Sketch.</desc>
    <g id="Start" stroke="none" stroke-width="1" fill="none" fill-rule="evenodd">
        <g id="1_3-menu_links" transform="translate(-649.000000, -468.000000)" fill="#000000" fill-rule="nonzero">
            <g id="Hierachie2" transform="translate(481.000000, 8.000000)">
                <g id="menu/Links" transform="translate(138.000000, 379.000000)">
                    <g id="Links/Hierachie2" transform="translate(0.500000, 0.000000)">
                        <g id="logo/Jira" transform="translate(29.776316, 81.837838)">
                            <path d="M20.0045337,9.88105263 L10.996639,0.873157895 L10.1234811,-1.96334177e-15 L10.1234811,-1.96334177e-15 L3.34269162,6.78078947 L3.34269162,6.78078947 L0.242428458,9.88105263 C-0.080809486,10.2046931 -0.080809486,10.7289911 0.242428458,11.0526316 L6.43742846,17.2476316 L10.1234811,20.9336842 L16.9042706,14.1528947 L17.0092706,14.0478947 L20.0045337,11.0526316 C20.3277717,10.7289911 20.3277717,10.2046931 20.0045337,9.88105263 Z M10.1234811,13.5615789 L7.02874425,10.4668421 L10.1234811,7.37210526 L13.2182179,10.4668421 L10.1234811,13.5615789 Z" id="Shape" fill="#2684FF"></path>
                        </g>
                    </g>
                </g>
            </g>
        </g>
    </g>
</svg>