<svg aria-hidden="true" style="position: absolute; width: 0; height: 0; overflow: hidden;" version="1.1" xmlns="http://www.w3.org/2000/svg" xmlns:xlink="http://www.w3.org/1999/xlink">
    <defs>
        <symbol id="icon1" viewBox="0 0 32 32">
            <path class="path-1" d="M45 67.9c0 2.3 1.9 4.1 4.2 4.1a4.1 4.1 0 1 0 0-8.3 4.1 4.1 0 0 0-4.1 4.2zm6 0c0 1-.8 1.7-1.8 1.7s-1.8-.7-1.8-1.7.8-1.8 1.8-1.8 1.8.7 1.8 1.8z" />
        </symbol>
        <symbol id="icon-burgerMenu">
            <g class="menu-button" fill="currentColor" fill-rule="nonzero" transform="translate(84 95)">
                <path class="Shape" d="M4.7 29.3a3.7 3.7 0 1 1 0-7.3h63.2a3.7 3.7 0 1 1 0 7.3H4.7zM4.4 8a3.7 3.7 0 0 1 0-7.3h63.2a3.7 3.7 0 0 1 0 7.3H4.4zm0 42a3.7 3.7 0 0 1 0-7.3h63.2a3.7 3.7 0 1 1 0 7.3H4.4z" />
            </g>
        </symbol>
        <symbol id="icon-alarm">
            <!-- <g transform="translate(24 24)">-->
            <g>
                <g class="notification">
                    <circle cx="45" cy="5" r="2" style="fill:#f00;stroke:#f00;stroke-width:3px;"></circle>
                </g>
                <circle cx="23.999" cy="41.597" r="0.984" style="fill:currentColor;stroke:currentColor;stroke-width:1.97px;" />
                <circle cx="30.884" cy="41.597" r="0.984" style="fill:currentColor;stroke:currentColor;stroke-width:1.97px;" />
                <circle cx="17.116" cy="41.597" r="0.984" style="fill:currentColor;stroke:currentColor;stroke-width:1.97px;" />
            </g>
            <g>
                <path d="M32.35,13.977c0,-4.694 -3.769,-8.558 -8.35,-8.558c-4.581,0 -8.35,3.864 -8.35,8.558c0,9.985 -4.175,12.838 -4.175,12.838l25.05,0c0,0 -4.175,-2.853 -4.175,-12.838" style="fill:none;stroke:currentColor;stroke-width:2.82px;" />
                <path d="M26.408,32.52c-0.498,0.879 -1.417,1.422 -2.408,1.422c-0.991,0 -1.91,-0.543 -2.408,-1.422" style="fill:none;stroke:currentColor;stroke-width:2.82px;" />
            </g>
            <!-- </g>-->
        </symbol>
        <symbol id="icon-environment-north">
            <g>
                <rect x="9.99" y="6.342" width="10.897" height="10.897" style="fill:none;stroke:currentColor;stroke-width:3.12px;" />
                <rect x="27.113" y="6.342" width="10.897" height="10.897" style="fill:none;stroke:currentColor;stroke-width:3.12px;" />
                <rect x="27.113" y="23.463" width="10.897" height="10.897" style="fill:none;stroke:currentColor;stroke-width:3.12px;" />
                <rect x="9.99" y="23.463" width="10.897" height="10.897" style="fill:none;stroke:currentColor;stroke-width:3.12px;" />
            </g>
            <g>
                <circle cx="23.999" cy="40.674" r="0.984" style="fill:currentColor;stroke:currentColor;stroke-width:1.97px;" />
                <circle cx="30.884" cy="40.674" r="0.984" style="fill:currentColor;stroke:currentColor;stroke-width:1.97px;" />
                <circle cx="17.116" cy="40.674" r="0.984" style="fill:currentColor;stroke:currentColor;stroke-width:1.97px;" />
            </g>
        </symbol>
        <symbol id="icon-summary-south">
            <g>
                <circle cx="23.999" cy="40.77" r="0.984" style="fill:currentColor;stroke:currentColor;stroke-width:1.97px;" />
                <circle cx="30.884" cy="40.77" r="0.984" style="fill:currentColor;stroke:currentColor;stroke-width:1.97px;" />
                <circle cx="17.116" cy="40.77" r="0.984" style="fill:currentColor;stroke:currentColor;stroke-width:1.97px;" />
                <path d="M7.209,22.022c0,0 6.106,-12.212 16.791,-12.212c10.685,0 16.791,12.212 16.791,12.212c0,0 -6.106,12.211 -16.791,12.211c-10.685,0 -16.791,-12.211 -16.791,-12.211Z" style="fill:none;stroke:currentColor;stroke-width:3.06px;" />
                <circle cx="24" cy="22.022" r="4.579" style="fill:none;stroke:currentColor;stroke-width:3.06px;" />
                <circle cx="45" cy="5" r="2" style="fill:#f00;stroke:#f00;stroke-width:3px;"></circle>
            </g>
        </symbol>
        <symbol id="icon-platforms-west">
            <g>
                <circle cx="23.999" cy="41.122" r="0.984" style="fill:currentColor;stroke:currentColor;stroke-width:1.97px;" />
                <circle cx="30.884" cy="41.122" r="0.984" style="fill:currentColor;stroke:currentColor;stroke-width:1.97px;" />
                <circle cx="17.116" cy="41.122" r="0.984" style="fill:currentColor;stroke:currentColor;stroke-width:1.97px;" />
            </g>
            <g>
                <path d="M37.31,35.841l0,-3.327c0,-3.651 -3.004,-6.655 -6.655,-6.655l-13.31,0c-3.651,0 -6.655,3.004 -6.655,6.655l0,3.327" style="fill:none;stroke:currentColor;stroke-width:3.33px;" />
                <circle cx="24" cy="12.55" r="6.655" style="fill:none;stroke:currentColor;stroke-width:3.33px;" />
            </g>
        </symbol>
        <symbol id="icon-warnings">
            <g>
                <!--<circle cx="45" cy="5" r="2" style="fill:#f00;stroke:#f00;stroke-width:3px;"></circle>-->
                <path d="M21.735,13.087l-11.216,19.077c-0.233,0.41 -0.355,0.876 -0.355,1.35c0,1.469 1.177,2.682 2.619,2.698l22.434,0c1.442,-0.016 2.619,-1.229 2.619,-2.698c0,-0.474 -0.122,-0.94 -0.355,-1.35l-11.216,-19.077c-0.48,-0.805 -1.34,-1.299 -2.265,-1.299c-0.925,0 -1.785,0.494 -2.265,1.299Z" style="fill:none;stroke:currentColor;stroke-width:2.67px;" />
                <path d="M24,20.022l0,5.396" style="fill:none;stroke:currentColor;stroke-width:2.67px;" />
                <path d="M24,30.815" style="fill:none;stroke:currentColor;stroke-width:2.67px;" />
                <ellipse cx="23.972" cy="29.936" rx="1.595" ry="1.625" style="fill:currentColor;" />
            </g>
        </symbol>
        <symbol id="icon-news">
            <g>
                <path d="M27.136,8.318l-12.545,0c-1.721,0 -3.136,1.416 -3.136,3.137l0,25.09c0,1.721 1.415,3.137 3.136,3.137l18.818,0c1.721,0 3.136,-1.416 3.136,-3.137l0,-18.818l-9.409,-9.409Z" style="fill:none;stroke:currentColor;stroke-width:3.14px;" />
                <path d="M27.136,8.318l0,9.409l9.409,0" style="fill:none;stroke:currentColor;stroke-width:3.14px;" />
                <path d="M30.273,25.568l-12.546,0" style="fill:none;stroke:currentColor;stroke-width:3.14px;" />
                <path d="M30.273,31.841l-12.546,0" style="fill:none;stroke:currentColor;stroke-width:3.14px;" />
                <path d="M20.864,19.295l-1.569,0l-1.568,0" style="fill:none;stroke:currentColor;stroke-width:3.14px;" />
            </g>
        </symbol>
        <symbol id="icon-stats">
            <g>
                <path d="M39.767,24l-6.307,0l-4.73,14.191l-9.46,-28.382l-4.73,14.191l-6.307,0" style="fill:none;stroke:currentColor;stroke-width:3.15px;" />
            </g>
        </symbol>
        <symbol id="icon-config">
            <path d="M13.109,36.388l0,-9.079" style="fill:none;stroke:currentColor;stroke-width:2.59px;" />
            <path d="M13.109,22.121l0,-9.078" style="fill:none;stroke:currentColor;stroke-width:2.59px;" />
            <path d="M23.485,36.388l0,-11.673" style="fill:none;stroke:currentColor;stroke-width:2.59px;" />
            <path d="M23.485,19.527l0,-6.484" style="fill:none;stroke:currentColor;stroke-width:2.59px;" />
            <path d="M33.86,36.388l0,-6.485" style="fill:none;stroke:currentColor;stroke-width:2.59px;" />
            <path d="M33.86,24.715l0,-11.672" style="fill:none;stroke:currentColor;stroke-width:2.59px;" />
            <path d="M9.218,27.309l7.782,0" style="fill:none;stroke:currentColor;stroke-width:2.59px;" />
            <path d="M19.594,19.527l7.781,0" style="fill:none;stroke:currentColor;stroke-width:2.59px;" />
            <path d="M29.969,29.903l7.782,0" style="fill:none;stroke:currentColor;stroke-width:2.59px;" />
        </symbol>
        <symbol id="icon-server">
            <path d="M35.366,14.907c0,-1.255 -1.018,-2.273 -2.273,-2.273l-18.186,0c-1.255,0 -2.273,1.018 -2.273,2.273l0,4.547c0,1.254 1.018,2.273 2.273,2.273l18.186,0c1.255,0 2.273,-1.019 2.273,-2.273l0,-4.547Z" style="fill:none;stroke:currentColor;stroke-width:2.27px;" />
            <path d="M35.366,28.546c0,-1.254 -1.018,-2.273 -2.273,-2.273l-18.186,0c-1.255,0 -2.273,1.019 -2.273,2.273l0,4.547c0,1.255 1.018,2.273 2.273,2.273l18.186,0c1.255,0 2.273,-1.018 2.273,-2.273l0,-4.547Z" style="fill:none;stroke:currentColor;stroke-width:2.27px;" />
            <ellipse cx="16.434" cy="17.18" rx="1.339" ry="1.304" style="fill:currentColor;" />
            <ellipse cx="16.434" cy="30.82" rx="1.339" ry="1.304" style="fill:currentColor;" />
            <circle cx="45" cy="5" r="2" style="fill:#f00;stroke:#f00;stroke-width:3px;"></circle>
        </symbol>
        <symbol id="icon-batches">
            <path d="M24,10.004l-13.996,6.998l13.996,6.998l13.996,-6.998l-13.996,-6.998Z" style="fill:none;stroke:currentColor;stroke-width:2.8px;" />
            <path d="M10.004,30.998l13.996,6.998l13.996,-6.998" style="fill:none;stroke:currentColor;stroke-width:2.8px;" />
            <path d="M10.004,24l13.996,6.998l13.996,-6.998" style="fill:none;stroke:currentColor;stroke-width:2.8px;" />
        </symbol>
        <symbol id="icon-batchChart">
            <path d="M24,10.004l-13.996,6.998l13.996,6.998l13.996,-6.998l-13.996,-6.998Z" style="fill:none;stroke:currentColor;stroke-width:2.8px;" />
            <path d="M10.004,30.998l13.996,6.998l13.996,-6.998" style="fill:none;stroke:currentColor;stroke-width:2.8px;" />
            <path d="M10.004,24l13.996,6.998l13.996,-6.998" style="fill:none;stroke:currentColor;stroke-width:2.8px;" />
        </symbol>
        <!-- Confluence-->
        <symbol id="icon-confluence">
            <g>
                <path d="M0.709873697,14.3593851 C0.507414681,14.689549 0.280037632,15.0726637 0.0869228776,15.3779096 C-0.0859298198,15.6700092 0.00686442698,16.0467261 0.295611402,16.2251228 L4.34479173,18.716926 C4.48692628,18.8046823 4.6583502,18.8316787 4.82057661,18.7918542 C4.98280301,18.7520297 5.12223872,18.6487212 5.20757862,18.5051228 C5.36954583,18.2341391 5.57823435,17.8821719 5.8056114,17.5052867 C7.40970976,14.8577457 9.02315239,15.1816801 11.9323327,16.5708605 L15.9472507,18.4802047 C16.0993099,18.5525806 16.2741937,18.5603089 16.4320444,18.5016283 C16.5898951,18.4429478 16.7172629,18.3228582 16.7851196,18.1687293 L18.7131524,13.8080736 C18.849371,13.4966307 18.7107662,13.133486 18.401677,12.992008 C17.5544639,12.5933195 15.8693819,11.7990572 14.3524966,11.06709 C8.89544747,8.41643423 4.25757862,8.58774571 0.709873697,14.3593851 Z" id="Path" fill="currentColor"></path>
                <path d="M18.8657753,4.46381128 C19.0682344,4.13364735 19.2956114,3.75053259 19.4887262,3.44528669 C19.6615789,3.15318717 19.5687846,2.77647023 19.2800376,2.59807357 L15.2308573,0.106270296 C15.087563,0.00975703794 14.9106233,-0.0229136018 14.7423117,0.0160638425 C14.574,0.0550412868 14.4294339,0.162165874 14.3431524,0.311844067 C14.1811852,0.582827673 13.9724966,0.934794886 13.7451196,1.31168013 C12.1410212,3.95922112 10.5275786,3.63528669 7.61839829,2.24610636 L3.61593927,0.346106362 C3.4638801,0.273730532 3.28899633,0.266002218 3.13114563,0.324682775 C2.97329493,0.383363333 2.84592708,0.503452847 2.77807042,0.657581772 L0.850037632,5.01823751 C0.713818977,5.3296804 0.852423804,5.69282504 1.16151304,5.83430308 C2.00872616,6.23299161 3.69380812,7.0272539 5.21069337,7.75922112 C10.6802016,10.4067621 15.3180704,10.2292211 18.8657753,4.46381128 Z" id="Path" fill="currentColor"></path>
            </g>
        </symbol>
        <symbol id="icon-confluence-text">
            <text x="100" y="48" alignment-baseline="middle" style="font-family:'OpenSans-Semibold', 'Open Sans', sans-serif;font-weight:400;font-size:18px;fill:currentColor;" text-anchor="middle">CONFLUENCE</text>
        </symbol>
        <!-- /Confluence-->
        <!-- Jira-->
        <symbol id="icon-jira">
            <g>
                <path d="M20.0045337,9.88105263 L10.996639,0.873157895 L10.1234811,-1.96334177e-15 L10.1234811,-1.96334177e-15 L3.34269162,6.78078947 L3.34269162,6.78078947 L0.242428458,9.88105263 C-0.080809486,10.2046931 -0.080809486,10.7289911 0.242428458,11.0526316 L6.43742846,17.2476316 L10.1234811,20.9336842 L16.9042706,14.1528947 L17.0092706,14.0478947 L20.0045337,11.0526316 C20.3277717,10.7289911 20.3277717,10.2046931 20.0045337,9.88105263 Z M10.1234811,13.5615789 L7.02874425,10.4668421 L10.1234811,7.37210526 L13.2182179,10.4668421 L10.1234811,13.5615789 Z" id="Shape" fill="currentColor"></path>
            </g>
        </symbol>
        <symbol id="icon-jira-text">
            <text x="100" y="48" alignment-baseline="middle" style="font-family:'OpenSans-Semibold', 'Open Sans', sans-serif;font-weight:400;font-size:18px;fill:currentColor;" text-anchor="middle">JIRA</text>
        </symbol>
        <!-- /Jira-->
        <!-- Bitbucket-->
        <symbol id="icon-bitbucket">
            <g>
                <path d="M0.675269464,5.31823956e-05 C0.478324311,-0.00243137244 0.290335833,0.0822462519 0.161731844,0.231426879 C0.033127855,0.380607507 -0.0229274275,0.579020644 0.00860279776,0.773442069 L2.8386028,17.9534421 C2.91138616,18.3874072 3.28525828,18.7064635 3.72526946,18.7101647 L17.3019361,18.7101647 C17.632198,18.7143594 17.9157839,18.4761473 17.9686028,18.1501087 L20.7986028,0.776775403 C20.830133,0.582353978 20.7740777,0.38394084 20.6454738,0.234760213 C20.5168698,0.0855795852 20.3288813,0.000901960893 20.1319361,0.0034420692 L0.675269464,5.31823956e-05 Z M12.5919361,12.4167754 L8.2586028,12.4167754 L7.08526946,6.2867754 L13.6419361,6.2867754 L12.5919361,12.4167754 Z" id="Shape" fill="currentColor"></path>
            </g>
        </symbol>
        <symbol id="icon-bitbucket-text">
            <text x="100" y="48" alignment-baseline="middle" style="font-family:'OpenSans-Semibold', 'Open Sans', sans-serif;font-weight:400;font-size:18px;fill:currentColor;" text-anchor="middle">BITBUCKET</text>
        </symbol>
        <!-- /Bitbucket-->
        <!-- Start-->
        <symbol id="icon-start">
            <g id="Start" stroke="none" stroke-width="1" fill="none" fill-rule="evenodd">
                <g id="1_1-menu_Home" transform="translate(-922.000000, -438.000000)">
                    <g id="Home" transform="translate(865.000000, 390.000000)">
                        <g id="button/startz" transform="translate(48.500000, 39.000000)">
                            <g id="Group-9" transform="translate(10.145455, 10.990909)">
                                <path d="M0.811636364,35.8984469 C0.811636364,16.5202101 16.5204637,0.811382727 35.8972995,0.811382727 C55.2755363,0.811382727 70.9843636,16.5202101 70.9843636,35.8984469 C70.9843636,55.2766837 55.2755363,70.98411 35.8972995,70.98411 C16.5204637,70.98411 0.811636364,55.2766837 0.811636364,35.8984469 Z" id="Stroke-1" stroke="currentColor" stroke-width="4"></path>
                                <g id="innen" transform="translate(15.763627, 11.765135)">
                                    <path d="M13.4590548,4.95404603 L11.9466902,5.51963574 C4.91085329,8.6718392 -9.02098598e-14,15.7225275 -9.02098598e-14,23.9316228 C-9.02098598e-14,35.076339 9.03582155,44.1121605 20.1817754,44.1121605 C31.3277292,44.1121605 40.3623131,35.076339 40.3623131,23.9316228 C40.3623131,15.3660946 35.0158196,8.06417061 27.4861746,5.13473771" id="Stroke-3" stroke="currentColor" stroke-width="4" stroke-linecap="round"></path>
                                    <path d="M20.258755,10.5444733 L20.1040532,10.5444733 C19.6176708,10.5444733 19.2228719,10.150912 19.2228719,9.66329197 L19.2228719,0.881181337 C19.2228719,0.394798942 19.6176708,0 20.1040532,0 L20.258755,0 C20.746375,0 21.1399363,0.394798942 21.1399363,0.881181337 L21.1399363,9.66329197 C21.1399363,10.150912 20.746375,10.5444733 20.258755,10.5444733" id="Fill-5" fill="currentColor"></path>
                                </g>
                                <path d="M35.985567,20.7431834 L35.810433,20.7431834 C35.2598114,20.7431834 34.8128692,20.2976422 34.8128692,19.7456196 L34.8128692,9.80360756 C34.8128692,9.25298598 35.2598114,8.80604379 35.810433,8.80604379 L35.985567,8.80604379 C36.5375897,8.80604379 36.9831308,9.25298598 36.9831308,9.80360756 L36.9831308,19.7456196 C36.9831308,20.2976422 36.5375897,20.7431834 35.985567,20.7431834 Z" id="Stroke-7" stroke="currentColor" stroke-width="2" stroke-linecap="round"></path>
                            </g>
                        </g>
                    </g>
                </g>
            </g>
        </symbol>
        <symbol id="icon-start-text">
            <text x="100" y="48" alignment-baseline="middle" style="font-family:'OpenSans-Semibold', 'Open Sans', sans-serif;font-weight:500;font-size:20px;fill:currentColor;" text-anchor="middle">START</text>
        </symbol>
        <!-- /Start-->

        <!-- Warnings-->
        <symbol id="icon-warning-new" width="75px">
            <g>
                <path d="M0,19 L22,19 L11,0 L0,19 Z M12,16 L10,16 L10,14 L12,14 L12,16 Z M12,12 L10,12 L10,8 L12,8 L12,12 Z" id="Shape" fill="currentColor"></path>
            </g>
        </symbol>
        <symbol id="icon-warning-text">
            <text x="100" y="48" alignment-baseline="middle" style="font-family:'OpenSans-Semibold', 'Open Sans', sans-serif;font-weight:400;font-size:18px;fill:currentColor;" text-anchor="middle">WARNUNGEN</text>
        </symbol>
        <!-- /Warnings-->

        <!-- Alarm -->
        <symbol id="icon-alarm-text">
            <text x="100" y="48" alignment-baseline="middle" style="font-family:'OpenSans-Semibold', 'Open Sans', sans-serif;font-weight:400;font-size:18px;fill:currentColor;" text-anchor="middle">ALARME</text>
        </symbol>
        <symbol id="icon-alarm-new" width="75px">
            <g>
                <path d="M19.25,18.5625 L19.25,11.6875 C19.25,7.46625 16.995,3.9325 13.0625,2.9975 L13.0625,2.0625 C13.0625,0.92125 12.14125,0 11,0 C9.85875,0 8.9375,0.92125 8.9375,2.0625 L8.9375,2.9975 C4.99125,3.9325 2.75,7.4525 2.75,11.6875 L2.75,18.5625 L0,21.3125 L0,22.6875 L22,22.6875 L22,21.3125 L19.25,18.5625 Z M12.375,18.5625 L9.625,18.5625 L9.625,15.8125 L12.375,15.8125 L12.375,18.5625 Z M12.375,13.0625 L9.625,13.0625 L9.625,7.5625 L12.375,7.5625 L12.375,13.0625 Z M11,26.8125 C12.5125,26.8125 13.75,25.575 13.75,24.0625 L8.25,24.0625 C8.25,25.575 9.47375,26.8125 11,26.8125 Z" id="Shape" fill="currentColor"></path>
            </g>
        </symbol>
        <!-- /Alarm-->

        <!-- Statistics-->
        <symbol id="icon-statistic-new" width="75px">
            <g>
                <circle id="Oval" cx="9.01331248" cy="9.98668752" r="9.01331248" fill="currentColor"></circle>
                <path d="M15.785994,0.973375038 L11,8.80500161 L19.7018073,11.8506342 C20.2819278,9.53015221 20.2819278,7.49973051 19.7018073,5.75936905 C19.1216868,4.01900759 17.8164157,2.42367625 15.785994,0.973375038 Z" id="Path-4" stroke="#000" stroke-width="1"></path>
            </g>
        </symbol>
        <symbol id="icon-statistic-text">
            <text x="100" y="48" alignment-baseline="middle" style="font-family:'OpenSans-Semibold', 'Open Sans', sans-serif;font-weight:400;font-size:18px;fill:currentColor;" text-anchor="middle">STATISTIKEN</text>
        </symbol>
        <!-- /Statistics-->

        <!-- Plattforms-->
        <symbol id="icon-platforms-new">
            <svg width="32px" height="22px" viewBox="-1 -1 25 18" version="1.1" xmlns:xlink="http://www.w3.org/1999/xlink" xmlns="http://www.w3.org/2000/svg">
                <defs>
                    <path d="M18.5289 12.9053C18.5518 12.9057 18.5748 12.906 18.5979 12.906C20.4804 12.906 22.0065 11.3799 22.0065 9.49736C22.0065 7.61485 20.4804 6.08877 18.5979 6.08877C18.2021 6.08877 17.8221 6.15621 17.4687 6.28023C17.5613 5.97046 17.6111 5.64217 17.6111 5.30227C17.6111 3.41975 16.085 1.89367 14.2025 1.89367C13.4826 1.89367 12.8149 2.11681 12.2647 2.4977C11.3281 0.997847 9.66259 0 7.76403 0C4.83567 0 2.46177 2.3739 2.46177 5.30227C2.46177 5.62159 2.48999 5.93432 2.54409 6.2381C1.07252 6.67849 0 8.04284 0 9.6577C0 11.5073 1.43253 12.7459 3.23773 12.8915L3.23773 12.906L18.5289 12.906L18.5289 12.9053Z" id="path_1" />
                    <rect width="23" height="18" id="artboard_1" />
                    <clipPath id="clip_1">
                        <use xlink:href="#artboard_1" clip-rule="evenodd" />
                    </clipPath>
                    <clipPath id="clip_2">
                        <use xlink:href="#path_1" />
                    </clipPath>
                </defs>
                <g id="icon/plattformen/state1" clip-path="url(#clip_1)">
                    <g id="cloud">
                        <use stroke="none" fill="currentColor" xlink:href="#path_1" fill-rule="evenodd" />
                        <g clip-path="url(#clip_2)">
                            <use xlink:href="#path_1" fill="none" stroke="currentColor" stroke-width="2" />
                        </g>
                    </g>
                    <path d="M0 0L1 0L1 6L0 6L0 0Z" transform="translate(10.00323 6.905964)" id="Rectangle" fill="#000000" stroke="none" />
                    <path d="M2 0L4 3.90596L0 3.90596L2 0Z" transform="translate(8.503229 4.952982)" id="Rectangle" fill="#000000" stroke="none" />
                </g>
            </svg>
        </symbol>
        <symbol id="icon-platforms-text">
            <text x="100" y="48" alignment-baseline="middle" style="font-family:'OpenSans-Semibold', 'Open Sans', sans-serif;font-weight:400;font-size:17px;fill:currentColor;" text-anchor="middle" lengthAdjust="spacing">PLATTFORMEN</text>
        </symbol>
        <!-- /Plattforms -->

        <!-- News -->
        <symbol id="icon-news-new" width="75px">
            <g>
                <path d="M22,10.46 L19.56,7.68 L19.9,4 L16.29,3.18 L14.4,3.55271368e-15 L11,1.46 L7.6,3.55271368e-15 L5.71,3.18 L2.1,3.99 L2.44,7.67 L0,10.46 L2.44,13.24 L2.1,16.93 L5.71,17.75 L7.6,20.93 L11,19.46 L14.4,20.92 L16.29,17.74 L19.9,16.92 L19.56,13.24 L22,10.46 Z M12,15.46 L10,15.46 L10,13.46 L12,13.46 L12,15.46 Z M12,11.46 L10,11.46 L10,5.46 L12,5.46 L12,11.46 Z" id="Shape" fill="currentColor"></path>
            </g>
        </symbol>
        <symbol id="icon-news-text">
            <text x="100" y="48" alignment-baseline="middle" style="font-family:'OpenSans-Semibold', 'Open Sans', sans-serif;font-weight:400;font-size:17px;fill:currentColor;" text-anchor="middle">NEUIGKEITEN</text>
        </symbol>
        <!-- /News-->

        <!-- Configuration -->
        <symbol id="icon-configuration-new" width="75px">
            <g>
                <path d="M8.82381888,2.56984043 C10.5979974,2.56984043 12.2042147,3.28896838 13.3668873,4.45164098 C14.5295599,5.61431357 15.2486878,7.22053081 15.2486878,8.99470939 C15.2486878,10.768888 14.5295599,12.3751052 13.3668873,13.5377778 C12.2042147,14.7004504 10.5979974,15.4195783 8.82381888,15.4195783 C7.0496403,15.4195783 5.44342306,14.7004504 4.28075047,13.5377778 C3.11807787,12.3751052 2.39894992,10.768888 2.39894992,8.99470939 C2.39894992,7.22053081 3.11807787,5.61431357 4.28075047,4.45164098 C5.44342306,3.28896838 7.0496403,2.56984043 8.82381888,2.56984043 Z M8.82381888,5.60195363 C7.88693524,5.60195363 7.03874631,5.98170076 6.42477828,6.59566879 C5.81081024,7.20963682 5.43106312,8.05782575 5.43106312,8.99470939 C5.43106312,9.93159302 5.81081024,10.779782 6.42477828,11.39375 C7.03874631,12.007718 7.88693524,12.3874651 8.82381888,12.3874651 C9.76070251,12.3874651 10.6088914,12.007718 11.2228595,11.39375 C11.8368275,10.779782 12.2165746,9.93159302 12.2165746,8.99470939 C12.2165746,8.05782575 11.8368275,7.20963682 11.2228595,6.59566879 C10.6088914,5.98170076 9.76070251,5.60195363 8.82381888,5.60195363 Z" id="Combined-Shape" fill="currentColor"></path>
                <polygon id="Path-5" fill="currentColor" points="7.0041873 3.21934817 10.6434504 3.21934817 9.52367717 2.40995342e-14 7.84401726 2.40995342e-14"></polygon>
                <polygon id="Path-5" fill="currentColor" points="11.3516419 3.51269068 13.9249896 6.08603833 15.4096132 3.01781614 14.2219143 1.83011722"></polygon>
                <polygon id="Path-5" fill="currentColor" transform="translate(15.828006, 8.613861) rotate(90.000000) translate(-15.828006, -8.613861) " points="14.0083746 10.2235355 17.6476378 10.2235355 16.5278645 7.0041873 14.8482046 7.0041873"></polygon>
                <polygon id="Path-5" fill="currentColor" points="13.9249896 11.1416844 11.3516419 13.7150321 14.4198641 15.1996557 15.607563 14.0119568"></polygon>
                <polygon id="Path-5" fill="currentColor" transform="translate(8.823819, 15.618049) rotate(180.000000) translate(-8.823819, -15.618049) " points="7.0041873 17.2277228 10.6434504 17.2277228 9.52367717 14.0083746 7.84401726 14.0083746"></polygon>
                <polygon id="Path-5" fill="currentColor" points="6.29599582 13.7150321 3.72264817 11.1416844 2.23802453 14.2099066 3.42572344 15.3976056"></polygon>
                <polygon id="Path-5" fill="currentColor" transform="translate(1.819632, 8.613861) rotate(270.000000) translate(-1.819632, -8.613861) " points="-2.10942375e-14 10.2235355 3.63926314 10.2235355 2.51948987 7.0041873 0.839829956 7.0041873"></polygon>
                <polygon id="Path-5" fill="currentColor" points="3.72264817 6.08603833 6.29599582 3.51269068 3.22777362 2.02806704 2.04007471 3.21576595"></polygon>
            </g>
        </symbol>
        <symbol id="icon-configuration-text">
            <text x="100" y="48" alignment-baseline="middle" style="font-family:'OpenSans-Semibold', 'Open Sans', sans-serif;font-weight:400;font-size:17px;fill:currentColor;" text-anchor="middle">KONFIGURATION</text>
        </symbol>

        <!-- /Configuration-->

        <!-- Overview -->
        <symbol id="icon-overview-new" width="75px">
            <path d="M16.5,15.2307692 C22.5751322,15.2307692 28.0751322,12.6923077 33,7.61538462 C28.0751322,2.53846154 22.5751322,2.84217094e-14 16.5,2.84217094e-14 C10.4248678,2.84217094e-14 4.92486775,2.53846154 0,7.61538462 C4.92486775,12.6923077 10.4248678,15.2307692 16.5,15.2307692 Z" id="Oval" fill="currentColor"></path>
            <circle id="Oval" fill="#000000" cx="16.5" cy="7.61538462" r="5.17626953"></circle>
        </symbol>
        <symbol id="icon-overview-text">
            <text x="100" y="48" alignment-baseline="middle" style="font-family:'OpenSans-Semibold', 'Open Sans', sans-serif;font-weight:400;font-size:17px;fill:currentColor;" text-anchor="middle">GESAMTÜBERBLICK</text>
        </symbol>
        <!-- /Overview -->

        <!-- Config-Overview -->
        <symbol id="icon-config-overview-new" width="75px">
            <g>
                <circle id="Oval" stroke="currentColor" stroke-width="2" fill="none" cx="8.4297485" cy="8.4297485" r="7.4297485"></circle>
                <g id="icon/konfiguration" fill="currentColor" transform="translate(3.430295, 3.668364)" stroke="currentColor" stroke-width="1">
                    <path d="M4.87744045,1.64412179 C5.79638147,1.64412179 6.62832643,2.01659623 7.23053613,2.61880593 C7.83274584,3.22101564 8.20522028,4.0529606 8.20522028,4.97190162 C8.20522028,5.89084265 7.83274584,6.72278761 7.23053613,7.32499731 C6.62832643,7.92720701 5.79638147,8.29968146 4.87744045,8.29968146 C3.95849942,8.29968146 3.12655446,7.92720701 2.52434476,7.32499731 C1.92213506,6.72278761 1.54966061,5.89084265 1.54966061,4.97190162 C1.54966061,4.0529606 1.92213506,3.22101564 2.52434476,2.61880593 C3.12655446,2.01659623 3.95849942,1.64412179 4.87744045,1.64412179 Z M4.87744045,2.87290643 C4.29781893,2.87290643 3.77307013,3.10784447 3.39322672,3.48768789 C3.0133833,3.86753131 2.77844526,4.39228011 2.77844526,4.97190162 C2.77844526,5.55152314 3.0133833,6.07627193 3.39322672,6.45611535 C3.77307013,6.83595877 4.29781893,7.07089681 4.87744045,7.07089681 C5.45706196,7.07089681 5.98181076,6.83595877 6.36165418,6.45611535 C6.7414976,6.07627193 6.97643564,5.55152314 6.97643564,4.97190162 C6.97643564,4.39228011 6.7414976,3.86753131 6.36165418,3.48768789 C5.98181076,3.10784447 5.45706196,2.87290643 4.87744045,2.87290643 Z" id="Combined-Shape"></path>
                    <polygon id="Path-5" points="3.87162372 1.7795219 5.88325718 1.7795219 5.26429304 1.33212212e-14 4.33584683 1.33212212e-14"></polygon>
                    <polygon id="Path-5" points="6.274716 1.94166946 7.69715566 3.36410912 8.51779393 1.66812337 7.86128331 1.01161276"></polygon>
                    <polygon id="Path-5" transform="translate(8.749064, 4.761385) rotate(90.000000) translate(-8.749064, -4.761385) " points="7.74324744 5.65114562 9.7548809 5.65114562 9.13591676 3.87162372 8.20747054 3.87162372"></polygon>
                    <polygon id="Path-5" points="7.69715566 6.15866023 6.274716 7.58109988 7.97070175 8.40173815 8.62721236 7.74522754"></polygon>
                    <polygon id="Path-5" transform="translate(4.877440, 8.633008) rotate(180.000000) translate(-4.877440, -8.633008) " points="3.87162372 9.52276934 5.88325718 9.52276934 5.26429304 7.74324744 4.33584683 7.74324744"></polygon>
                    <polygon id="Path-5" points="3.48016489 7.58109988 2.05772523 6.15866023 1.23708697 7.85464597 1.89359758 8.51115658"></polygon>
                    <polygon id="Path-5" transform="translate(1.005817, 4.761385) rotate(270.000000) translate(-1.005817, -4.761385) " points="-1.28785871e-14 5.65114562 2.01163346 5.65114562 1.39266932 3.87162372 0.464223105 3.87162372"></polygon>
                    <polygon id="Path-5" points="2.05772523 3.36410912 3.48016489 1.94166946 1.78417915 1.12103119 1.12766854 1.77754181"></polygon>
                </g>
                <path d="" id="Path-3" stroke="#979797" stroke-width="1" fill="none"></path>
                <polygon id="Rectangle" fill="currentColor" transform="translate(21.416550, 15.814105) rotate(-60.000000) translate(-21.416550, -15.814105) " points="20.3866764 8.92789685 22.4464236 8.92789685 22.4464236 22.7003131 20.3866764 22.7003131"></polygon>
            </g>
        </symbol>
        <symbol id="icon-config-overview-text">
            <text x="100" alignment-baseline="middle" style="font-family:'OpenSans-Semibold', 'Open Sans', sans-serif;font-weight:400;font-size:17px;fill:currentColor;" text-anchor="middle">
                <tspan y="50">KONFIGURATIONS</tspan>
                <tspan y="70" x="100">ÜBERSICHT</tspan>
            </text>
        </symbol>
        <!-- /Config-Overview -->

        <!-- Batches -->
        <symbol id="icon-batches-new" width="75px">
            <g>
                <path d="M10.5363394,0.553284006 L1.16459065,5.02616408 L10.5380031,9.46433283 L20.1227516,5.06244829 L10.5363394,0.553284006 Z" id="oben" fill="currentColor"></path>
                <polyline id="Path-3" fill="none" points="0 7.00667447 10.6544934 11.9947332 21.3089868 7.00667447"></polyline>
                <polyline id="Path-3" fill="none" points="0 9.22481258 10.6544934 14.2128713 21.3089868 9.22481258"></polyline>
            </g>
        </symbol>
        <symbol id="icon-batches-text">
            <text x="100" y="48" alignment-baseline="middle" style="font-family:'OpenSans-Semibold', 'Open Sans', sans-serif;font-weight:400;font-size:17px;fill:currentColor;" text-anchor="middle">BATCHES</text>
        </symbol>
        <!-- /Batches -->

        <!-- BatchChart -->
        <symbol id="icon-batches-new" width="75px">
            <g>
                <path d="M10.5363394,0.553284006 L1.16459065,5.02616408 L10.5380031,9.46433283 L20.1227516,5.06244829 L10.5363394,0.553284006 Z" id="oben" fill="currentColor"></path>
                <polyline id="Path-3" fill="none" points="0 7.00667447 10.6544934 11.9947332 21.3089868 7.00667447"></polyline>
                <polyline id="Path-3" fill="none" points="0 9.22481258 10.6544934 14.2128713 21.3089868 9.22481258"></polyline>
            </g>
        </symbol>
        <symbol id="icon-batchChart-text">
            <text x="100" y="48" alignment-baseline="middle" style="font-family:'OpenSans-Semibold', 'Open Sans', sans-serif;font-weight:400;font-size:17px;fill:currentColor;" text-anchor="middle">BATCH-CHART</text>
        </symbol>
        <!-- /BatchChart -->

        <!-- Environment -->
        <symbol id="icon-environment-new">
            <svg width="22px" height="22px" viewBox="0 0 22 22" version="1.1" xmlns:xlink="http://www.w3.org/1999/xlink" xmlns="http://www.w3.org/2000/svg">
                <g id="icon/umgebungen">
                    <path d="M0 0L9.43231 0L9.43231 7.87134L0 7.87134L0 0Z" id="Rectangle" fill="currentColor" stroke="none" />
                    <path d="M0 0L9.86804 0L9.86804 6.875L0 6.875L0 0Z" transform="translate(12.02856 14.72485)" id="Rectangle" fill="currentColor" stroke="none" />
                    <path d="M0 0L9.43231 0L9.43231 11L0 11L0 0Z" transform="translate(0 10.59985)" id="Rectangle" fill="currentColor" stroke="none" />
                    <path d="M0 0L9.86804 0L9.86804 12.2129L0 12.2129L0 0Z" transform="translate(12.02856 0)" id="Rectangle" fill="currentColor" stroke="none" />
                </g>
            </svg>
        </symbol>
        <symbol id="icon-environment-text">
            <text x="100" y="48" alignment-baseline="middle" style="font-family:'OpenSans-Semibold', 'Open Sans', sans-serif;font-weight:400;font-size:17px;fill:currentColor;" text-anchor="middle">UMGEBUNGEN</text>
        </symbol>
        <!-- /Environment -->

        <symbol id="icon-dev">
            <text x="48" y="48" alignment-baseline="middle" style="font-family:'OpenSans-Semibold', 'Open Sans', sans-serif;font-weight:600;font-size:20px;fill:currentColor;" text-anchor="middle">DEV</text>
        </symbol>
        <symbol id="icon-prod">
            <text x="48" y="48" alignment-baseline="middle" style="font-family:'OpenSans-Semibold', 'Open Sans', sans-serif;font-weight:600;font-size:20px;fill:currentColor;" text-anchor="middle">PROD</text>
        </symbol>
        <symbol id="icon-test">
            <text x="48" y="48" alignment-baseline="middle" style="font-family:'OpenSans-Semibold', 'Open Sans', sans-serif;font-weight:600;font-size:20px;fill:currentColor;" text-anchor="middle">TEST</text>
        </symbol>
    </defs>
</svg>
