<?xml version="1.0" encoding="UTF-8"?>
<svg width="28px" height="21px" viewBox="0 0 28 21" version="1.1" xmlns="http://www.w3.org/2000/svg" xmlns:xlink="http://www.w3.org/1999/xlink">
    <!-- Generator: Sketch 64 (93537) - https://sketch.com -->
    <title>icon/configübersicht</title>
    <desc>Created with Sketch.</desc>
    <g id="Start" stroke="none" stroke-width="1" fill="none" fill-rule="evenodd">
        <g id="1_5-menu_unten" transform="translate(-830.000000, -744.000000)" fill="#000000">
            <g id="Hierachie2" transform="translate(481.000000, 8.000000)">
                <g id="menu/Unten" transform="translate(326.000000, 736.500000)">
                    <g id="icon/configübersicht" transform="translate(23.000000, 0.000000)">
                        <circle id="Oval" stroke="#FFFFFF" stroke-width="2" fill="none" cx="8.4297485" cy="8.4297485" r="7.4297485"></circle>
                        <g id="icon/konfiguration" fill="#FFFFFF" transform="translate(3.430295, 3.668364)" stroke="#FFFFFF" stroke-width="1">
                            <path d="M4.87744045,1.64412179 C5.79638147,1.64412179 6.62832643,2.01659623 7.23053613,2.61880593 C7.83274584,3.22101564 8.20522028,4.0529606 8.20522028,4.97190162 C8.20522028,5.89084265 7.83274584,6.72278761 7.23053613,7.32499731 C6.62832643,7.92720701 5.79638147,8.29968146 4.87744045,8.29968146 C3.95849942,8.29968146 3.12655446,7.92720701 2.52434476,7.32499731 C1.92213506,6.72278761 1.54966061,5.89084265 1.54966061,4.97190162 C1.54966061,4.0529606 1.92213506,3.22101564 2.52434476,2.61880593 C3.12655446,2.01659623 3.95849942,1.64412179 4.87744045,1.64412179 Z M4.87744045,2.87290643 C4.29781893,2.87290643 3.77307013,3.10784447 3.39322672,3.48768789 C3.0133833,3.86753131 2.77844526,4.39228011 2.77844526,4.97190162 C2.77844526,5.55152314 3.0133833,6.07627193 3.39322672,6.45611535 C3.77307013,6.83595877 4.29781893,7.07089681 4.87744045,7.07089681 C5.45706196,7.07089681 5.98181076,6.83595877 6.36165418,6.45611535 C6.7414976,6.07627193 6.97643564,5.55152314 6.97643564,4.97190162 C6.97643564,4.39228011 6.7414976,3.86753131 6.36165418,3.48768789 C5.98181076,3.10784447 5.45706196,2.87290643 4.87744045,2.87290643 Z" id="Combined-Shape"></path>
                            <polygon id="Path-5" points="3.87162372 1.7795219 5.88325718 1.7795219 5.26429304 1.33212212e-14 4.33584683 1.33212212e-14"></polygon>
                            <polygon id="Path-5" points="6.274716 1.94166946 7.69715566 3.36410912 8.51779393 1.66812337 7.86128331 1.01161276"></polygon>
                            <polygon id="Path-5" transform="translate(8.749064, 4.761385) rotate(90.000000) translate(-8.749064, -4.761385) " points="7.74324744 5.65114562 9.7548809 5.65114562 9.13591676 3.87162372 8.20747054 3.87162372"></polygon>
                            <polygon id="Path-5" points="7.69715566 6.15866023 6.274716 7.58109988 7.97070175 8.40173815 8.62721236 7.74522754"></polygon>
                            <polygon id="Path-5" transform="translate(4.877440, 8.633008) rotate(180.000000) translate(-4.877440, -8.633008) " points="3.87162372 9.52276934 5.88325718 9.52276934 5.26429304 7.74324744 4.33584683 7.74324744"></polygon>
                            <polygon id="Path-5" points="3.48016489 7.58109988 2.05772523 6.15866023 1.23708697 7.85464597 1.89359758 8.51115658"></polygon>
                            <polygon id="Path-5" transform="translate(1.005817, 4.761385) rotate(270.000000) translate(-1.005817, -4.761385) " points="-1.28785871e-14 5.65114562 2.01163346 5.65114562 1.39266932 3.87162372 0.464223105 3.87162372"></polygon>
                            <polygon id="Path-5" points="2.05772523 3.36410912 3.48016489 1.94166946 1.78417915 1.12103119 1.12766854 1.77754181"></polygon>
                        </g>
                        <path d="" id="Path-3" stroke="#979797" stroke-width="1" fill="none"></path>
                        <polygon id="Rectangle" fill="#FFFFFF" transform="translate(21.416550, 15.814105) rotate(-60.000000) translate(-21.416550, -15.814105) " points="20.3866764 8.92789685 22.4464236 8.92789685 22.4464236 22.7003131 20.3866764 22.7003131"></polygon>
                    </g>
                </g>
            </g>
        </g>
    </g>
</svg>