<?xml version="1.0" encoding="UTF-8"?>
<svg width="19px" height="19px" viewBox="0 0 19 19" version="1.1" xmlns="http://www.w3.org/2000/svg" xmlns:xlink="http://www.w3.org/1999/xlink">
    <!-- Generator: Sketch 64 (93537) - https://sketch.com -->
    <title>icon/konfiguration</title>
    <desc>Created with Sketch.</desc>
    <g id="Start" stroke="none" stroke-width="1" fill="none" fill-rule="evenodd">
        <g id="1_5-menu_unten" transform="translate(-950.000000, -778.000000)" fill="#000000" stroke="#FFFFFF">
            <g id="Hierachie2" transform="translate(481.000000, 8.000000)">
                <g id="menu/Unten" transform="translate(326.000000, 736.500000)">
                    <g id="icon/konfiguration" transform="translate(143.955446, 34.500000)">
                        <path d="M8.82381888,2.56984043 C10.5979974,2.56984043 12.2042147,3.28896838 13.3668873,4.45164098 C14.5295599,5.61431357 15.2486878,7.22053081 15.2486878,8.99470939 C15.2486878,10.768888 14.5295599,12.3751052 13.3668873,13.5377778 C12.2042147,14.7004504 10.5979974,15.4195783 8.82381888,15.4195783 C7.0496403,15.4195783 5.44342306,14.7004504 4.28075047,13.5377778 C3.11807787,12.3751052 2.39894992,10.768888 2.39894992,8.99470939 C2.39894992,7.22053081 3.11807787,5.61431357 4.28075047,4.45164098 C5.44342306,3.28896838 7.0496403,2.56984043 8.82381888,2.56984043 Z M8.82381888,5.60195363 C7.88693524,5.60195363 7.03874631,5.98170076 6.42477828,6.59566879 C5.81081024,7.20963682 5.43106312,8.05782575 5.43106312,8.99470939 C5.43106312,9.93159302 5.81081024,10.779782 6.42477828,11.39375 C7.03874631,12.007718 7.88693524,12.3874651 8.82381888,12.3874651 C9.76070251,12.3874651 10.6088914,12.007718 11.2228595,11.39375 C11.8368275,10.779782 12.2165746,9.93159302 12.2165746,8.99470939 C12.2165746,8.05782575 11.8368275,7.20963682 11.2228595,6.59566879 C10.6088914,5.98170076 9.76070251,5.60195363 8.82381888,5.60195363 Z" id="Combined-Shape" fill="#FFFFFF"></path>
                        <polygon id="Path-5" fill="#FFFFFF" points="7.0041873 3.21934817 10.6434504 3.21934817 9.52367717 2.40995342e-14 7.84401726 2.40995342e-14"></polygon>
                        <polygon id="Path-5" fill="#FFFFFF" points="11.3516419 3.51269068 13.9249896 6.08603833 15.4096132 3.01781614 14.2219143 1.83011722"></polygon>
                        <polygon id="Path-5" fill="#FFFFFF" transform="translate(15.828006, 8.613861) rotate(90.000000) translate(-15.828006, -8.613861) " points="14.0083746 10.2235355 17.6476378 10.2235355 16.5278645 7.0041873 14.8482046 7.0041873"></polygon>
                        <polygon id="Path-5" fill="#FFFFFF" points="13.9249896 11.1416844 11.3516419 13.7150321 14.4198641 15.1996557 15.607563 14.0119568"></polygon>
                        <polygon id="Path-5" fill="#FFFFFF" transform="translate(8.823819, 15.618049) rotate(180.000000) translate(-8.823819, -15.618049) " points="7.0041873 17.2277228 10.6434504 17.2277228 9.52367717 14.0083746 7.84401726 14.0083746"></polygon>
                        <polygon id="Path-5" fill="#FFFFFF" points="6.29599582 13.7150321 3.72264817 11.1416844 2.23802453 14.2099066 3.42572344 15.3976056"></polygon>
                        <polygon id="Path-5" fill="#FFFFFF" transform="translate(1.819632, 8.613861) rotate(270.000000) translate(-1.819632, -8.613861) " points="-2.10942375e-14 10.2235355 3.63926314 10.2235355 2.51948987 7.0041873 0.839829956 7.0041873"></polygon>
                        <polygon id="Path-5" fill="#FFFFFF" points="3.72264817 6.08603833 6.29599582 3.51269068 3.22777362 2.02806704 2.04007471 3.21576595"></polygon>
                    </g>
                </g>
            </g>
        </g>
    </g>
</svg>