<?xml version="1.0" encoding="UTF-8"?>
<svg width="23px" height="21px" viewBox="0 0 23 21" version="1.1" xmlns="http://www.w3.org/2000/svg" xmlns:xlink="http://www.w3.org/1999/xlink">
    <!-- Generator: Sketch 64 (93537) - https://sketch.com -->
    <title>icon/neuigkeiten</title>
    <desc>Created with Sketch.</desc>
    <g id="Start" stroke="none" stroke-width="1" fill="none" fill-rule="evenodd">
        <g id="1_4-menu_rechts" transform="translate(-1239.000000, -386.000000)" fill="#FFFFFF" fill-rule="nonzero">
            <g id="Hierachie2" transform="translate(481.000000, 8.000000)">
                <g id="menu/Rechts" transform="translate(730.000000, 378.000000)">
                    <g id="rechts/Hierachie2">
                        <g id="icon/neuigkeiten" transform="translate(28.500000, 0.000000)">
                            <path d="M22,10.46 L19.56,7.68 L19.9,4 L16.29,3.18 L14.4,3.55271368e-15 L11,1.46 L7.6,3.55271368e-15 L5.71,3.18 L2.1,3.99 L2.44,7.67 L0,10.46 L2.44,13.24 L2.1,16.93 L5.71,17.75 L7.6,20.93 L11,19.46 L14.4,20.92 L16.29,17.74 L19.9,16.92 L19.56,13.24 L22,10.46 Z M12,15.46 L10,15.46 L10,13.46 L12,13.46 L12,15.46 Z M12,11.46 L10,11.46 L10,5.46 L12,5.46 L12,11.46 Z" id="Shape" fill="#000000"></path>
                        </g>
                    </g>
                </g>
            </g>
        </g>
    </g>
</svg>