<?xml version="1.0" encoding="UTF-8"?>
<svg width="30px" height="18px" viewBox="0 0 30 18" version="1.1" xmlns="http://www.w3.org/2000/svg" xmlns:xlink="http://www.w3.org/1999/xlink">
    <!-- Generator: Sketch 64 (93537) - https://sketch.com -->
    <title>icon/plattformen</title>
    <desc>Created with Sketch.</desc>
    <g id="Start" stroke="none" stroke-width="1" fill="none" fill-rule="evenodd">
        <g id="1_2-menu_open" transform="translate(-783.000000, -473.000000)">
            <g id="Hierachie-1" transform="translate(732.000000, 257.000000)">
                <g id="icon/plattformen/state1" transform="translate(51.166667, 216.000000)">
                    <path d="M10.3520419,0.5 C8.5378729,0.5 6.89545111,1.23533728 5.70657157,2.42421682 C4.51769204,3.61309636 3.78235475,5.25551815 3.78235475,7.06968716 C3.78235475,7.46535262 3.81727471,7.85285223 3.53653136,8.79615356 C2.64743493,9.06197673 1.88053434,9.61063088 1.33972672,10.3373523 C0.812086362,11.0463799 0.5,11.9252264 0.5,12.8769302 C0.5,13.9305416 0.893571611,14.8167857 1.54461034,15.469944 C2.24500263,16.1726165 3.23545038,16.6054985 4.33960459,16.7079519 L24.7971467,16.7079519 C25.9140871,16.7079519 26.9252868,16.2552224 27.6572515,15.5232578 C28.3892161,14.7912931 28.8419456,13.7800934 28.8419456,12.663153 C28.8419456,11.5462127 28.3892161,10.5350129 27.6572515,9.8030483 C26.9252868,9.07108367 25.9140871,8.61835414 24.7971467,8.61835414 C24.3273998,8.61835414 23.8763196,8.69827892 23.4586853,8.84702883 L22.5286165,9.17829386 L22.8119545,8.23252216 C22.9222877,7.86423426 22.9814609,7.47387278 22.9814609,7.06968716 C22.9814609,5.95274679 22.5287314,4.94154707 21.7967668,4.20958244 C21.0648021,3.47761781 20.0536024,3.02488827 18.936662,3.02488827 C18.0827157,3.02488827 17.2905057,3.28939864 16.6381526,3.74169655 C16.4873278,3.84626836 16.3432817,3.96136161 16.2072407,4.08640468 C16.1216735,3.91927803 16.0289386,3.75544549 15.9291381,3.59559596 C14.7686473,1.73684877 12.7048326,0.5 10.3520419,0.5 Z" id="cloud" stroke="#FFFFFF" stroke-width="1" fill="#FFFFFF"></path>
                    <rect id="Rectangle" fill="#000000" x="13.3376395" y="9.20795192" width="1.33333333" height="8"></rect>
                    <polygon id="Rectangle" fill="#000000" points="14.0043062 6.60397596 16.6709728 11.8119279 11.3376395 11.8119279"></polygon>
                </g>
            </g>
        </g>
    </g>
</svg>